# xmcd
#
# Track frame offsets: 
#        150
#        13784
#        27417
#        40460
#        53761
#        67827
#        82644
#        96502
#        107119
#        121067
#        132842
#        145326
#        157415
#        170426
#        184182
#        197314
#        212214
#        227520
#        240121
#        255560
#
# Disc length: 3573 seconds
#
# Revision: 0
# Processed by: cddbd v1.4PL0 Copyright (c) Steve Scherf et al.
# Submitted via: ExactAudioCopy v0.90b4
#
DISCID=090df314
DTITLE=Carter Family - Country and Folk Roots
DYEAR=2003
DGENRE=Country
TTITLE0=Coal Miner's Blues
TTITLE1=My Home's Across the Blue Ridge Mountains
TTITLE2=No Depression
TTITLE3=Are You Lonesome Tonignt?
TTITLE4=When I' m Gone
TTITLE5=Engine One-Forty-Three
TTITLE6=Chewing Gum
TTITLE7=You're Nothin' More To Me
TTITLE8=Lonesome For You, Darling
TTITLE9=It's a Long, Long Road to Travel Alone
TTITLE10=When This Evening Sun Goes Down
TTITLE11=Jealous Hearted Me
TTITLE12=In the Shadows of the Pines
TTITLE13=My Texas Girl
TTITLE14=Little Black Train
TTITLE15=No Telephone in Heaven
TTITLE16=Wandering Boy
TTITLE17=Cyclone of Rye Cove
TTITLE18=Fond Affection
TTITLE19=Sunshine in the Shadows
EXTD=
EXTT0=
EXTT1=
EXTT2=
EXTT3=
EXTT4=
EXTT5=
EXTT6=
EXTT7=
EXTT8=
EXTT9=
EXTT10=
EXTT11=
EXTT12=
EXTT13=
EXTT14=
EXTT15=
EXTT16=
EXTT17=
EXTT18=
EXTT19=
PLAYORDER=
